<svg width="24" height="24" viewBox="0 0 24 24" fill="none" xmlns="http://www.w3.org/2000/svg">
<g clipPath="url(#clip0_2233_3592)">
<path d="M18.0594 14.5598L18.3999 15.228L18.3999 15.228L18.0594 14.5598ZM18.5697 14.0494L17.9015 13.709L17.9015 13.709L18.5697 14.0494ZM7.14708 14.0494L7.81533 13.709V13.709L7.14708 14.0494ZM7.65739 14.5598L7.99788 13.8915L7.65739 14.5598ZM18.0594 8.97571L18.3999 8.30746L18.3999 8.30746L18.0594 8.97571ZM18.5697 9.48602L17.9015 9.82652L17.9015 9.82652L18.5697 9.48602ZM7.65739 8.97571L7.3169 8.30746L7.65739 8.97571ZM7.14708 9.48602L6.47882 9.14553L7.14708 9.48602ZM12.8584 11.0177C12.4442 11.0177 12.1084 11.3535 12.1084 11.7677C12.1084 12.1819 12.4442 12.5177 12.8584 12.5177V11.0177ZM12.8613 12.5177C13.2755 12.5177 13.6113 12.1819 13.6113 11.7677C13.6113 11.3535 13.2755 11.0177 12.8613 11.0177V12.5177ZM15.7777 11.0177C15.3635 11.0177 15.0277 11.3535 15.0277 11.7677C15.0277 12.1819 15.3635 12.5177 15.7777 12.5177V11.0177ZM15.7806 12.5177C16.1948 12.5177 16.5306 12.1819 16.5306 11.7677C16.5306 11.3535 16.1948 11.0177 15.7806 11.0177V12.5177ZM9.9391 11.0177C9.52489 11.0177 9.1891 11.3535 9.1891 11.7677C9.1891 12.1819 9.52489 12.5177 9.9391 12.5177V11.0177ZM9.94202 12.5177C10.3562 12.5177 10.692 12.1819 10.692 11.7677C10.692 11.3535 10.3562 11.0177 9.94202 11.0177V12.5177ZM13.6083 7.59673C13.6083 7.18251 13.2725 6.84673 12.8583 6.84673C12.4441 6.84673 12.1083 7.18251 12.1083 7.59673H13.6083ZM16.1952 8.8485C16.1952 9.26272 16.531 9.5985 16.9452 9.5985C17.3594 9.5985 17.6952 9.26272 17.6952 8.8485H16.1952ZM17.5462 6.03232L17.0776 5.44666L17.5462 6.03232ZM18.8734 5.931C19.1968 5.67224 19.2493 5.20027 18.9905 4.87682C18.7318 4.55338 18.2598 4.50094 17.9363 4.75969L18.8734 5.931ZM8.60505 8.8485C8.60505 9.26272 8.94084 9.5985 9.35505 9.5985C9.76926 9.5985 10.1051 9.26272 10.1051 8.8485H8.60505ZM8.79773 6.0339L8.30878 6.60261L8.79773 6.0339ZM8.4858 4.77664C8.17171 4.5066 7.69818 4.54231 7.42814 4.8564C7.1581 5.17048 7.19381 5.64401 7.5079 5.91405L8.4858 4.77664ZM6.72768 11.3501C7.1419 11.3501 7.47768 11.0143 7.47768 10.6001C7.47768 10.1859 7.1419 9.85008 6.72768 9.85008V11.3501ZM5.26803 9.85008C4.85382 9.85008 4.51803 10.1859 4.51803 10.6001C4.51803 11.0143 4.85382 11.3501 5.26803 11.3501V9.85008ZM6.72768 14.2694C7.1419 14.2694 7.47768 13.9336 7.47768 13.5194C7.47768 13.1052 7.1419 12.7694 6.72768 12.7694V14.2694ZM4.39227 15.1206L5.14227 15.1206L4.39227 15.1206ZM3.64227 15.6027C3.64228 16.0169 3.97807 16.3527 4.39228 16.3527C4.8065 16.3527 5.14228 16.0169 5.14227 15.6027L3.64227 15.6027ZM10.1051 14.6871C10.1051 14.2729 9.76926 13.9371 9.35505 13.9371C8.94084 13.9371 8.60505 14.2729 8.60505 14.6871H10.1051ZM8.60505 18.0045C8.60505 18.4187 8.94084 18.7545 9.35505 18.7545C9.76926 18.7545 10.1051 18.4187 10.1051 18.0045H8.60505ZM17.1531 14.6871C17.1531 14.2729 16.8173 13.9371 16.4031 13.9371C15.9889 13.9371 15.6531 14.2729 15.6531 14.6871H17.1531ZM16.8721 16.8723L16.3417 17.4026L16.8721 16.8723ZM17.474 18.5348C17.7669 18.8277 18.2417 18.8277 18.5346 18.5348C18.8275 18.2419 18.8275 17.767 18.5346 17.4741L17.474 18.5348ZM20.4484 12.5178C20.8626 12.5178 21.1984 12.182 21.1984 11.7678C21.1984 11.3536 20.8626 11.0178 20.4484 11.0178V12.5178ZM18.9887 11.0178C18.5745 11.0178 18.2387 11.3536 18.2387 11.7678C18.2387 12.182 18.5745 12.5178 18.9887 12.5178V11.0178ZM12.1084 16.4033C12.1084 16.8175 12.4442 17.1533 12.8584 17.1533C13.2726 17.1533 13.6084 16.8175 13.6084 16.4033H12.1084ZM7.7698 12.8187V10.7168H6.26981V12.8187H7.7698ZM16.8286 13.937H8.88816V15.437H16.8286V13.937ZM17.947 10.7168V12.8187H19.447V10.7168H17.947ZM16.8286 15.437C17.1433 15.437 17.4243 15.4376 17.6567 15.4186C17.8978 15.3989 18.1517 15.3545 18.3999 15.228L17.7189 13.8915C17.7174 13.8923 17.6829 13.9115 17.5345 13.9236C17.3774 13.9364 17.168 13.937 16.8286 13.937V15.437ZM17.947 12.8187C17.947 13.158 17.9464 13.3675 17.9336 13.5246C17.9215 13.6729 17.9023 13.7074 17.9015 13.709L19.238 14.3899C19.3645 14.1417 19.4089 13.8878 19.4286 13.6467C19.4476 13.4144 19.447 13.1333 19.447 12.8187H17.947ZM18.3999 15.228C18.7607 15.0442 19.0541 14.7508 19.238 14.3899L17.9015 13.709C17.8614 13.7876 17.7975 13.8515 17.7189 13.8915L18.3999 15.228ZM6.26981 12.8187C6.26981 13.1333 6.26922 13.4144 6.28821 13.6467C6.3079 13.8878 6.35234 14.1417 6.47882 14.3899L7.81533 13.709C7.81455 13.7074 7.79534 13.6729 7.78322 13.5246C7.77039 13.3675 7.7698 13.1581 7.7698 12.8187H6.26981ZM8.88816 13.937C8.54879 13.937 8.33937 13.9364 8.18227 13.9236C8.03394 13.9115 7.99943 13.8923 7.99788 13.8915L7.3169 15.228C7.56514 15.3545 7.81903 15.3989 8.06013 15.4186C8.29247 15.4376 8.57354 15.437 8.88816 15.437V13.937ZM6.47882 14.3899C6.66268 14.7508 6.95606 15.0442 7.3169 15.228L7.99788 13.8915C7.91928 13.8515 7.85538 13.7876 7.81533 13.709L6.47882 14.3899ZM16.8286 9.59844C17.168 9.59844 17.3774 9.59902 17.5345 9.61186C17.6829 9.62398 17.7174 9.64318 17.7189 9.64397L18.3999 8.30746C18.1517 8.18097 17.8978 8.13654 17.6567 8.11684C17.4243 8.09785 17.1433 8.09844 16.8286 8.09844V9.59844ZM19.447 10.7168C19.447 10.4022 19.4476 10.1211 19.4286 9.88876C19.4089 9.64766 19.3645 9.39378 19.238 9.14553L17.9015 9.82652C17.9023 9.82806 17.9215 9.86257 17.9336 10.0109C17.9464 10.168 17.947 10.3774 17.947 10.7168H19.447ZM17.7189 9.64397C17.7975 9.68401 17.8614 9.74792 17.9015 9.82652L19.238 9.14553C19.0541 8.78469 18.7607 8.49132 18.3999 8.30746L17.7189 9.64397ZM8.88816 8.09844C8.57354 8.09844 8.29247 8.09785 8.06013 8.11684C7.81903 8.13654 7.56514 8.18097 7.3169 8.30746L7.99788 9.64397C7.99943 9.64318 8.03393 9.62398 8.18227 9.61186C8.33937 9.59902 8.54879 9.59844 8.88816 9.59844V8.09844ZM7.7698 10.7168C7.7698 10.3774 7.77039 10.168 7.78322 10.0109C7.79534 9.86257 7.81455 9.82806 7.81533 9.82652L6.47882 9.14553C6.35234 9.39378 6.3079 9.64766 6.28821 9.88876C6.26922 10.1211 6.26981 10.4022 6.26981 10.7168H7.7698ZM7.3169 8.30746C6.95606 8.49131 6.66268 8.78469 6.47882 9.14553L7.81533 9.82652C7.85538 9.74792 7.91929 9.68401 7.99788 9.64397L7.3169 8.30746ZM12.8584 12.5177H12.8613V11.0177H12.8584V12.5177ZM12.2544 11.7677C12.2544 11.4341 12.5248 11.1637 12.8584 11.1637V12.6637C13.3532 12.6637 13.7544 12.2626 13.7544 11.7677H12.2544ZM12.8584 11.1637C13.192 11.1637 13.4624 11.4341 13.4624 11.7677H11.9624C11.9624 12.2626 12.3636 12.6637 12.8584 12.6637V11.1637ZM13.4624 11.7677C13.4624 12.1013 13.192 12.3718 12.8584 12.3718V10.8718C12.3636 10.8718 11.9624 11.2729 11.9624 11.7677H13.4624ZM12.8584 12.3718C12.5248 12.3718 12.2544 12.1013 12.2544 11.7677H13.7544C13.7544 11.2729 13.3532 10.8718 12.8584 10.8718V12.3718ZM15.7777 12.5177H15.7806V11.0177H15.7777V12.5177ZM15.1737 11.7677C15.1737 11.4341 15.4441 11.1637 15.7777 11.1637V12.6637C16.2725 12.6637 16.6737 12.2626 16.6737 11.7677H15.1737ZM15.7777 11.1637C16.1113 11.1637 16.3817 11.4341 16.3817 11.7677H14.8817C14.8817 12.2626 15.2829 12.6637 15.7777 12.6637V11.1637ZM16.3817 11.7677C16.3817 12.1013 16.1113 12.3718 15.7777 12.3718V10.8718C15.2829 10.8718 14.8817 11.2729 14.8817 11.7677H16.3817ZM15.7777 12.3718C15.4441 12.3718 15.1737 12.1013 15.1737 11.7677H16.6737C16.6737 11.2729 16.2725 10.8718 15.7777 10.8718V12.3718ZM9.9391 12.5177H9.94202V11.0177H9.9391V12.5177ZM9.33507 11.7677C9.33507 11.4341 9.6055 11.1637 9.9391 11.1637V12.6637C10.4339 12.6637 10.8351 12.2626 10.8351 11.7677H9.33507ZM9.9391 11.1637C10.2727 11.1637 10.5431 11.4341 10.5431 11.7677H9.04314C9.04314 12.2626 9.44428 12.6637 9.9391 12.6637V11.1637ZM10.5431 11.7677C10.5431 12.1013 10.2727 12.3718 9.9391 12.3718V10.8718C9.44428 10.8718 9.04314 11.2729 9.04314 11.7677H10.5431ZM9.9391 12.3718C9.6055 12.3718 9.33507 12.1013 9.33507 11.7677H10.8351C10.8351 11.2729 10.4339 10.8718 9.9391 10.8718V12.3718ZM12.1083 7.59673V8.76445H13.6083V7.59673H12.1083ZM17.6952 8.8485V7.28264H16.1952V8.8485H17.6952ZM18.0147 6.61797L18.8734 5.931L17.9363 4.75969L17.0776 5.44666L18.0147 6.61797ZM10.1051 8.8485V7.24805H8.60505V8.8485H10.1051ZM9.28668 5.4652L8.4858 4.77664L7.5079 5.91405L8.30878 6.60261L9.28668 5.4652ZM6.72768 9.85008H5.26803V11.3501H6.72768V9.85008ZM6.72768 12.7694H5.99346V14.2694H6.72768V12.7694ZM3.64227 15.1206L3.64227 15.6027L5.14227 15.6027L5.14227 15.1206L3.64227 15.1206ZM8.60505 14.6871V18.0045H10.1051V14.6871H8.60505ZM15.6531 14.6871V15.74H17.1531V14.6871H15.6531ZM16.3417 17.4026L17.474 18.5348L18.5346 17.4741L17.4024 16.3419L16.3417 17.4026ZM20.4484 11.0178H18.9887V12.5178H20.4484V11.0178ZM15.6531 15.74C15.6531 16.3636 15.9008 16.9616 16.3417 17.4026L17.4024 16.3419C17.2428 16.1823 17.1531 15.9658 17.1531 15.74H15.6531ZM5.99346 12.7694C4.69492 12.7694 3.64225 13.8221 3.64227 15.1206L5.14227 15.1206C5.14226 14.6505 5.52335 14.2694 5.99346 14.2694V12.7694ZM10.1051 7.24805C10.1051 6.56291 9.8062 5.91186 9.28668 5.4652L8.30878 6.60261C8.49686 6.76431 8.60505 7.00001 8.60505 7.24805H10.1051ZM17.6952 7.28264C17.6952 7.02406 17.8128 6.7795 18.0147 6.61797L17.0776 5.44666C16.5199 5.89286 16.1952 6.56838 16.1952 7.28264H17.6952ZM6.8466 4.79464C6.8466 5.04366 6.64473 5.24554 6.39571 5.24554V6.74554C7.47316 6.74554 8.3466 5.87209 8.3466 4.79464H6.8466ZM6.39571 5.24554C6.14669 5.24554 5.94482 5.04366 5.94482 4.79464H4.44482C4.44482 5.87209 5.31826 6.74554 6.39571 6.74554V5.24554ZM5.94482 4.79464C5.94482 4.54562 6.14669 4.34375 6.39571 4.34375V2.84375C5.31826 2.84375 4.44482 3.71719 4.44482 4.79464H5.94482ZM6.39571 4.34375C6.64473 4.34375 6.8466 4.54562 6.8466 4.79464H8.3466C8.3466 3.71719 7.47316 2.84375 6.39571 2.84375V4.34375ZM20.4567 4.79464C20.4567 5.04366 20.2549 5.24554 20.0058 5.24554V6.74554C21.0833 6.74554 21.9567 5.87209 21.9567 4.79464H20.4567ZM20.0058 5.24554C19.7568 5.24554 19.5549 5.04366 19.5549 4.79464H18.0549C18.0549 5.87209 18.9284 6.74554 20.0058 6.74554V5.24554ZM19.5549 4.79464C19.5549 4.54562 19.7568 4.34375 20.0058 4.34375V2.84375C18.9284 2.84375 18.0549 3.71719 18.0549 4.79464H19.5549ZM20.0058 4.34375C20.2549 4.34375 20.4567 4.54562 20.4567 4.79464H21.9567C21.9567 3.71719 21.0833 2.84375 20.0058 2.84375V4.34375ZM19.6561 19.2054C19.6561 19.4544 19.4543 19.6562 19.2052 19.6562V21.1562C20.2827 21.1562 21.1561 20.2828 21.1561 19.2054H19.6561ZM19.2052 19.6562C18.9562 19.6562 18.7543 19.4544 18.7543 19.2054H17.2543C17.2543 20.2828 18.1278 21.1562 19.2052 21.1562V19.6562ZM18.7543 19.2054C18.7543 18.9563 18.9562 18.7545 19.2052 18.7545V17.2545C18.1278 17.2545 17.2543 18.1279 17.2543 19.2054H18.7543ZM19.2052 18.7545C19.4543 18.7545 19.6561 18.9563 19.6561 19.2054H21.1561C21.1561 18.1279 20.2827 17.2545 19.2052 17.2545V18.7545ZM4.44482 16.8036C4.44482 17.0526 4.24294 17.2545 3.99392 17.2545V18.7545C5.07137 18.7545 5.94482 17.881 5.94482 16.8036H4.44482ZM3.99392 17.2545C3.7449 17.2545 3.54303 17.0526 3.54303 16.8036H2.04303C2.04303 17.881 2.91647 18.7545 3.99392 18.7545V17.2545ZM3.54303 16.8036C3.54303 16.5545 3.7449 16.3527 3.99392 16.3527V14.8527C2.91647 14.8527 2.04303 15.7261 2.04303 16.8036H3.54303ZM3.99392 16.3527C4.24294 16.3527 4.44482 16.5545 4.44482 16.8036H5.94482C5.94482 15.7261 5.07137 14.8527 3.99392 14.8527V16.3527ZM8.88816 9.59844H12.8584V8.09844H8.88816V9.59844ZM12.8584 9.59844H16.8286V8.09844H12.8584V9.59844ZM13.6084 16.4033V14.687H12.1084V16.4033H13.6084Z" fill="#"/>
</g>
<defs>
<clipPath id="clip0_2233_3592">
<rect width="20" height="20" fill="white" transform="translate(2 2)"/>
</clipPath>
</defs>
</svg>
