<svg width="24" height="24" viewBox="0 0 24 24" fill="none" xmlns="http://www.w3.org/2000/svg">
<g clip-path="url(#clip0_2978_5435)">
<path d="M11.4578 18.4128C11.0435 18.4128 10.7078 18.7486 10.7078 19.1628C10.7078 19.5771 11.0435 19.9128 11.4578 19.9128V18.4128ZM14.241 13.5135L14.6093 12.8602L14.241 13.5135ZM9.28429 10.7193L8.91598 11.3727L9.28429 10.7193ZM12.6773 5.82004C13.0915 5.82004 13.4273 5.48425 13.4273 5.07004C13.4273 4.65583 13.0915 4.32004 12.6773 4.32004V5.82004ZM4.54305 7.39507L3.8156 7.57761L3.8156 7.57761L4.54305 7.39507ZM5.25831 5.60196L4.80672 5.00316L4.80672 5.00316L5.25831 5.60196ZM18.267 18.6309L17.8154 18.0321V18.0321L18.267 18.6309ZM18.9822 16.8378L18.2548 17.0204L18.2548 17.0204L18.9822 16.8378ZM11.4578 19.9128H11.9875V18.4128H11.4578V19.9128ZM14.6093 12.8602L9.65259 10.066L8.91598 11.3727L13.8727 14.1669L14.6093 12.8602ZM11.5378 5.82004H12.6773V4.32004H11.5378V5.82004ZM9.65259 10.066C8.12405 9.20433 7.01676 8.57951 6.2639 8.07674C5.88831 7.82591 5.63127 7.62506 5.46445 7.46038C5.29231 7.29046 5.27018 7.21126 5.2705 7.21253L3.8156 7.57761C3.91113 7.95832 4.15003 8.2706 4.41068 8.52789C4.67665 8.79043 5.02417 9.05255 5.43085 9.32414C6.24254 9.86622 7.41066 10.5241 8.91598 11.3727L9.65259 10.066ZM11.5378 4.32004C9.69099 4.32004 8.26774 4.31965 7.22008 4.38813C6.69465 4.42247 6.23593 4.4756 5.84935 4.56284C5.46838 4.64882 5.10342 4.7794 4.80672 5.00316L5.7099 6.20076C5.76586 6.15856 5.89766 6.08967 6.17957 6.02604C6.45587 5.96369 6.82616 5.91708 7.31792 5.88493C8.30464 5.82044 9.66845 5.82004 11.5378 5.82004V4.32004ZM5.2705 7.21253C5.19058 6.89407 5.30114 6.50903 5.7099 6.20076L4.80672 5.00316C3.99613 5.61447 3.5663 6.58412 3.8156 7.57761L5.2705 7.21253ZM11.9875 19.9128C13.8343 19.9128 15.2575 19.9132 16.3052 19.8448C16.8306 19.8104 17.2893 19.7573 17.6759 19.67C18.0569 19.5841 18.4218 19.4535 18.7185 19.2297L17.8154 18.0321C17.7594 18.0743 17.6276 18.1432 17.3457 18.2068C17.0694 18.2692 16.6991 18.3158 16.2073 18.348C15.2206 18.4125 13.8568 18.4128 11.9875 18.4128V19.9128ZM13.8727 14.1669C15.4012 15.0286 16.5085 15.6534 17.2614 16.1562C17.637 16.407 17.894 16.6078 18.0608 16.7725C18.233 16.9424 18.2551 17.0216 18.2548 17.0204L19.7097 16.6553C19.6141 16.2746 19.3752 15.9623 19.1146 15.705C18.8486 15.4425 18.5011 15.1803 18.0944 14.9087C17.2827 14.3667 16.1146 13.7088 14.6093 12.8602L13.8727 14.1669ZM18.7185 19.2297C19.5291 18.6184 19.959 17.6488 19.7097 16.6553L18.2548 17.0204C18.3347 17.3388 18.2241 17.7239 17.8154 18.0321L18.7185 19.2297ZM19.7674 5.17829C19.7674 6.02736 19.0408 6.7682 18.0784 6.7682V8.2682C19.81 8.2682 21.2674 6.91381 21.2674 5.17829H19.7674ZM18.0784 6.7682C17.116 6.7682 16.3894 6.02736 16.3894 5.17829H14.8894C14.8894 6.91381 16.3468 8.2682 18.0784 8.2682V6.7682ZM16.3894 5.17829C16.3894 4.32921 17.116 3.58838 18.0784 3.58838V2.08838C16.3468 2.08838 14.8894 3.44277 14.8894 5.17829H16.3894ZM18.0784 3.58838C19.0408 3.58838 19.7674 4.32921 19.7674 5.17829H21.2674C21.2674 3.44277 19.81 2.08838 18.0784 2.08838V3.58838ZM7.61054 18.7851C7.61054 19.6342 6.88397 20.375 5.92156 20.375V21.875C7.65317 21.875 9.11054 20.5207 9.11054 18.7851H7.61054ZM5.92156 20.375C4.95914 20.375 4.23257 19.6342 4.23257 18.7851H2.73257C2.73257 20.5207 4.18995 21.875 5.92156 21.875V20.375ZM4.23257 18.7851C4.23257 17.9361 4.95914 17.1952 5.92156 17.1952V15.6952C4.18995 15.6952 2.73257 17.0496 2.73257 18.7851H4.23257ZM5.92156 17.1952C6.88397 17.1952 7.61054 17.9361 7.61054 18.7851H9.11054C9.11054 17.0496 7.65317 15.6952 5.92156 15.6952V17.1952Z" fill="#"/>
</g>
<defs>
<clipPath id="clip0_2978_5435">
<rect width="20" height="20" fill="white" transform="matrix(1 0 0 -1 2 22)"/>
</clipPath>
</defs>
</svg>
