<svg width="24" height="24" viewBox="0 0 24 24" fill="none" xmlns="http://www.w3.org/2000/svg">
<g clipPath="url(#clip0_2236_2230)">
<path d="M20.4573 20.7714H12.8M2.74976 21.25L8.06132 19.2071C8.40106 19.0764 8.57093 19.0111 8.72986 18.9258C8.87102 18.85 9.0056 18.7626 9.13217 18.6643C9.27468 18.5538 9.40337 18.4251 9.66076 18.1677L20.4573 7.37112C21.5146 6.31386 21.5146 4.59971 20.4573 3.54245C19.4001 2.4852 17.6859 2.4852 16.6287 3.54245L5.8321 14.339C5.57471 14.5964 5.44602 14.7251 5.33543 14.8676C5.23721 14.9942 5.14975 15.1288 5.07398 15.2699C4.98867 15.4288 4.92333 15.5987 4.79266 15.9385L2.74976 21.25ZM2.74976 21.25L4.71972 16.1282C4.86069 15.7617 4.93117 15.5784 5.05206 15.4945C5.15772 15.4211 5.28845 15.3934 5.41479 15.4175C5.55935 15.4451 5.69819 15.5839 5.97587 15.8616L8.13819 18.0239C8.41586 18.3016 8.5547 18.4404 8.58231 18.585C8.60643 18.7113 8.57869 18.8421 8.50533 18.9477C8.42139 19.0686 8.23813 19.1391 7.87162 19.2801L2.74976 21.25Z" stroke="#" strokeWidth="1.5" strokeLinecap="round" strokeLinejoin="round"/>
</g>
<defs>
<clipPath id="clip0_2236_2230">
<rect width="20" height="20" fill="white" transform="translate(2 2)"/>
</clipPath>
</defs>
</svg>
