<svg width="24" height="24" viewBox="0 0 24 24" fill="none" xmlns="http://www.w3.org/2000/svg">
<g clipPath="url(#clip0_2249_6283)">
<path d="M11.0313 4.74971H7.19579C5.66145 4.74971 4.89428 4.74971 4.30824 5.04832C3.79275 5.31097 3.37364 5.73008 3.11098 6.24558C2.81238 6.83162 2.81238 7.59879 2.81238 9.13312V16.8041C2.81238 18.3384 2.81238 19.1056 3.11098 19.6916C3.37364 20.2071 3.79275 20.6262 4.30824 20.8889C4.89428 21.1875 5.66145 21.1875 7.19579 21.1875H14.8668C16.4011 21.1875 17.1683 21.1875 17.7543 20.8889C18.2698 20.6262 18.6889 20.2071 18.9516 19.6916C19.2502 19.1056 19.2502 18.3384 19.2502 16.8041V12.9686M8.29162 15.7082H9.82083C10.2676 15.7082 10.4909 15.7082 10.7011 15.6578C10.8875 15.613 11.0656 15.5392 11.229 15.4391C11.4134 15.3261 11.5713 15.1682 11.8872 14.8523L20.62 6.11953C21.3765 5.363 21.3765 4.13643 20.62 3.3799C19.8635 2.62337 18.6369 2.62337 17.8804 3.37989L9.14753 12.1127C8.83165 12.4286 8.67371 12.5865 8.56076 12.7708C8.46062 12.9342 8.38682 13.1124 8.34208 13.2988C8.29162 13.509 8.29162 13.7323 8.29162 14.1791V15.7082Z" stroke="#" strokeWidth="1.5" strokeLinecap="round" strokeLinejoin="round"/>
</g>
<defs>
<clipPath id="clip0_2249_6283">
<rect width="20" height="20" fill="white" transform="translate(2 2)"/>
</clipPath>
</defs>
</svg>
