<svg width="24" height="24" viewBox="0 0 24 24" fill="none" xmlns="http://www.w3.org/2000/svg">
<path d="M20.3029 17.1421L20.6139 17.7128L20.6139 17.7128L20.3029 17.1421ZM21.1175 16.2708L20.5307 15.9912L20.5307 15.9912L21.1175 16.2708ZM2.88238 16.2708L3.46919 15.9912H3.46919L2.88238 16.2708ZM3.69704 17.1421L3.38601 17.7128H3.38601L3.69704 17.1421ZM20.3029 7.60793L20.6139 7.03718L20.6139 7.03718L20.3029 7.60793ZM21.1175 8.47923L20.5307 8.75879L20.5307 8.75879L21.1175 8.47923ZM3.69704 7.60793L3.38601 7.03718L3.69704 7.60793ZM2.88238 8.47923L3.46919 8.75879H3.46919L2.88238 8.47923ZM5.66184 8.04062H18.3381V6.74063H5.66184V8.04062ZM3.3292 14.1694V10.5806H2.0292V14.1694H3.3292ZM18.3381 16.7094H5.66184V18.0094H18.3381V16.7094ZM20.6707 10.5806V14.1694H21.9707V10.5806H20.6707ZM18.3381 18.0094C18.8486 18.0094 19.2733 18.01 19.619 17.9797C19.9737 17.9488 20.3039 17.8818 20.6139 17.7128L19.9919 16.5713C19.9031 16.6197 19.7729 16.6613 19.5059 16.6847C19.2299 16.7088 18.8716 16.7094 18.3381 16.7094V18.0094ZM20.6707 14.1694C20.6707 14.7377 20.6703 15.1274 20.6472 15.4294C20.6246 15.7249 20.5833 15.8809 20.5307 15.9912L21.7044 16.5503C21.855 16.2341 21.9152 15.8977 21.9434 15.5284C21.9712 15.1654 21.9707 14.7176 21.9707 14.1694H20.6707ZM20.6139 17.7128C21.0901 17.4533 21.4692 17.0439 21.7044 16.5503L20.5307 15.9912C20.4084 16.248 20.2172 16.4485 19.9919 16.5713L20.6139 17.7128ZM2.0292 14.1694C2.0292 14.7176 2.02876 15.1654 2.05649 15.5284C2.0847 15.8977 2.14494 16.2341 2.29557 16.5503L3.46919 15.9912C3.41664 15.8809 3.37529 15.7249 3.35271 15.4294C3.32964 15.1274 3.3292 14.7377 3.3292 14.1694H2.0292ZM5.66184 16.7094C5.12837 16.7094 4.77006 16.7088 4.49406 16.6847C4.22703 16.6613 4.09683 16.6197 4.00808 16.5713L3.38601 17.7128C3.69602 17.8818 4.02621 17.9488 4.38089 17.9797C4.72659 18.01 5.15129 18.0094 5.66184 18.0094V16.7094ZM2.29557 16.5503C2.53069 17.0439 2.90986 17.4533 3.38601 17.7128L4.00808 16.5713C3.7827 16.4485 3.59151 16.248 3.46919 15.9912L2.29557 16.5503ZM18.3381 8.04062C18.8716 8.04062 19.2299 8.0412 19.5059 8.06532C19.7729 8.08865 19.9031 8.13032 19.9919 8.17868L20.6139 7.03718C20.3039 6.86824 19.9737 6.80125 19.619 6.77026C19.2733 6.74005 18.8486 6.74063 18.3381 6.74063V8.04062ZM21.9707 10.5806C21.9707 10.0324 21.9712 9.58459 21.9434 9.22162C21.9152 8.85225 21.855 8.51585 21.7044 8.19967L20.5307 8.75879C20.5833 8.8691 20.6246 9.02509 20.6472 9.32065C20.6703 9.6226 20.6707 10.0123 20.6707 10.5806H21.9707ZM19.9919 8.17868C20.2172 8.3015 20.4084 8.50204 20.5307 8.75879L21.7044 8.19967C21.4692 7.70613 21.0901 7.29666 20.6139 7.03718L19.9919 8.17868ZM5.66184 6.74063C5.15129 6.74063 4.72659 6.74005 4.38089 6.77026C4.02621 6.80125 3.69602 6.86824 3.38601 7.03718L4.00808 8.17868C4.09683 8.13032 4.22703 8.08865 4.49406 8.06532C4.77006 8.0412 5.12837 8.04062 5.66184 8.04062V6.74063ZM3.3292 10.5806C3.3292 10.0123 3.32964 9.6226 3.35271 9.32064C3.37529 9.02509 3.41664 8.8691 3.46919 8.75879L2.29557 8.19967C2.14494 8.51585 2.0847 8.85225 2.05649 9.22162C2.02876 9.58459 2.0292 10.0324 2.0292 10.5806H3.3292ZM3.38601 7.03718C2.90986 7.29666 2.53069 7.70613 2.29557 8.19967L3.46919 8.75879C3.59151 8.50203 3.7827 8.3015 4.00808 8.17868L3.38601 7.03718ZM10.2328 10.947V12.7329H11.5328V10.947H10.2328ZM9.39578 13.524V13.8819H10.6958V13.524H9.39578ZM7.58679 13.8819V13.524H6.28679V13.8819H7.58679ZM6.74975 12.7329V10.9058H5.44975V12.7329H6.74975ZM9.2486 13.9854H7.73397V15.2854H9.2486V13.9854ZM6.93679 10.7646H10.0021V9.46464H6.93679V10.7646ZM6.74975 10.9058C6.74975 10.8619 6.79846 10.7646 6.93679 10.7646V9.46464C6.15055 9.46464 5.44975 10.0758 5.44975 10.9058H6.74975ZM6.51827 12.4785C6.61108 12.4785 6.74975 12.5583 6.74975 12.7329H5.44975C5.44975 13.3444 5.96317 13.7785 6.51827 13.7785V12.4785ZM7.58679 13.524C7.58679 12.9125 7.07337 12.4785 6.51827 12.4785V13.7785C6.42545 13.7785 6.28679 13.6986 6.28679 13.524H7.58679ZM6.28679 13.8819C6.28679 14.6911 6.96974 15.2854 7.73397 15.2854V13.9854C7.68146 13.9854 7.6415 13.9657 7.61676 13.9423C7.59266 13.9195 7.58679 13.8983 7.58679 13.8819H6.28679ZM9.39578 13.8819C9.39578 13.8983 9.38991 13.9195 9.36581 13.9423C9.34107 13.9657 9.3011 13.9854 9.2486 13.9854V15.2854C10.0128 15.2854 10.6958 14.6911 10.6958 13.8819H9.39578ZM10.4643 12.4785C9.9092 12.4785 9.39578 12.9125 9.39578 13.524H10.6958C10.6958 13.6986 10.5571 13.7785 10.4643 13.7785V12.4785ZM10.2328 12.7329C10.2328 12.5583 10.3715 12.4785 10.4643 12.4785V13.7785C11.0194 13.7785 11.5328 13.3444 11.5328 12.7329H10.2328ZM11.5328 10.947C11.5328 10.0943 10.8125 9.46464 10.0021 9.46464V10.7646C10.1646 10.7646 10.2328 10.8804 10.2328 10.947H11.5328ZM17.2502 10.947V12.7329H18.5502V10.947H17.2502ZM16.4132 13.524V13.8819H17.7132V13.524H16.4132ZM14.6042 13.8819V13.524H13.3042V13.8819H14.6042ZM13.7672 12.7329V10.9058H12.4672V12.7329H13.7672ZM16.266 13.9854H14.7514V15.2854H16.266V13.9854ZM13.9542 10.7646H17.0195V9.46464H13.9542V10.7646ZM13.7672 10.9058C13.7672 10.8619 13.8159 10.7646 13.9542 10.7646V9.46464C13.168 9.46464 12.4672 10.0758 12.4672 10.9058H13.7672ZM13.5357 12.4785C13.6285 12.4785 13.7672 12.5583 13.7672 12.7329H12.4672C12.4672 13.3444 12.9806 13.7785 13.5357 13.7785V12.4785ZM14.6042 13.524C14.6042 12.9125 14.0908 12.4785 13.5357 12.4785V13.7785C13.4429 13.7785 13.3042 13.6986 13.3042 13.524H14.6042ZM13.3042 13.8819C13.3042 14.6911 13.9871 15.2854 14.7514 15.2854V13.9854C14.6989 13.9854 14.6589 13.9657 14.6342 13.9423C14.6101 13.9195 14.6042 13.8983 14.6042 13.8819H13.3042ZM16.4132 13.8819C16.4132 13.8983 16.4073 13.9195 16.3832 13.9423C16.3585 13.9657 16.3185 13.9854 16.266 13.9854V15.2854C17.0302 15.2854 17.7132 14.6911 17.7132 13.8819H16.4132ZM17.4817 12.4785C16.9266 12.4785 16.4132 12.9125 16.4132 13.524H17.7132C17.7132 13.6986 17.5745 13.7785 17.4817 13.7785V12.4785ZM17.2502 12.7329C17.2502 12.5583 17.3889 12.4785 17.4817 12.4785V13.7785C18.0368 13.7785 18.5502 13.3444 18.5502 12.7329H17.2502ZM18.5502 10.947C18.5502 10.0943 17.8299 9.46464 17.0195 9.46464V10.7646C17.182 10.7646 17.2502 10.8804 17.2502 10.947H18.5502Z" fill="#"/>
</svg>
