<svg width="24" height="24" viewBox="0 0 24 24" fill="none" xmlns="http://www.w3.org/2000/svg">
<g clip-path="url(#clip0_2237_2367)">
<path d="M12.0156 14.7363C13.5419 14.7363 14.7792 13.5044 14.7792 11.9849C14.7792 10.4653 13.5419 9.23345 12.0156 9.23345C10.4894 9.23345 9.25209 10.4653 9.25209 11.9849C9.25209 13.5044 10.4894 14.7363 12.0156 14.7363Z" stroke="#F4F4F5" stroke-width="1.5" stroke-linecap="round" stroke-linejoin="round"/>
<path d="M18.2127 14.4862C18.1012 14.7376 18.0679 15.0166 18.1172 15.2871C18.1664 15.5575 18.296 15.8071 18.489 16.0036L18.5393 16.0536C18.695 16.2085 18.8185 16.3924 18.9028 16.5948C18.9871 16.7973 19.0305 17.0143 19.0305 17.2334C19.0305 17.4525 18.9871 17.6695 18.9028 17.872C18.8185 18.0744 18.695 18.2583 18.5393 18.4132C18.3837 18.5682 18.199 18.6912 17.9957 18.7751C17.7923 18.859 17.5744 18.9022 17.3543 18.9022C17.1342 18.9022 16.9162 18.859 16.7129 18.7751C16.5096 18.6912 16.3249 18.5682 16.1693 18.4132L16.1191 18.3631C15.9217 18.1709 15.671 18.042 15.3994 17.993C15.1277 17.9439 14.8475 17.977 14.5949 18.088C14.3472 18.1937 14.136 18.3692 13.9872 18.5929C13.8384 18.8166 13.7586 19.0787 13.7575 19.347V19.4887C13.7575 19.931 13.581 20.3551 13.2669 20.6678C12.9528 20.9806 12.5268 21.1562 12.0826 21.1562C11.6384 21.1562 11.2124 20.9806 10.8983 20.6678C10.5842 20.3551 10.4078 19.931 10.4078 19.4887V19.4137C10.4013 19.1377 10.3115 18.8701 10.1503 18.6455C9.98896 18.421 9.76355 18.25 9.50332 18.1547C9.25074 18.0437 8.97055 18.0106 8.69889 18.0597C8.42723 18.1087 8.17656 18.2376 7.97919 18.4298L7.92894 18.4799C7.77339 18.6349 7.58867 18.7579 7.38535 18.8418C7.18202 18.9257 6.96408 18.9689 6.74397 18.9689C6.52387 18.9689 6.30592 18.9257 6.10259 18.8418C5.89927 18.7579 5.71455 18.6349 5.559 18.4799C5.40328 18.325 5.27974 18.1411 5.19545 17.9387C5.11116 17.7362 5.06778 17.5192 5.06778 17.3001C5.06778 17.081 5.11116 16.864 5.19545 16.6615C5.27974 16.4591 5.40328 16.2752 5.559 16.1203L5.60924 16.0703C5.8023 15.8738 5.93181 15.6242 5.98107 15.3538C6.03033 15.0833 5.99707 14.8043 5.8856 14.5529C5.77944 14.3063 5.60318 14.0959 5.3785 13.9478C5.15383 13.7997 4.89055 13.7202 4.62107 13.7191H4.47871C4.0345 13.7191 3.60849 13.5434 3.29439 13.2307C2.98029 12.918 2.80383 12.4938 2.80383 12.0516C2.80383 11.6093 2.98029 11.1852 3.29439 10.8724C3.60849 10.5597 4.0345 10.384 4.47871 10.384H4.55408C4.83126 10.3776 5.10009 10.2883 5.3256 10.1277C5.55112 9.96708 5.7229 9.74266 5.8186 9.48358C5.93008 9.2321 5.96333 8.95314 5.91408 8.68267C5.86482 8.41221 5.73531 8.16263 5.54225 7.96613L5.492 7.9161C5.33628 7.76123 5.21274 7.57733 5.12846 7.37489C5.04417 7.17246 5.00079 6.95547 5.00079 6.73633C5.00079 6.51719 5.04417 6.3002 5.12846 6.09777C5.21274 5.89533 5.33628 5.71142 5.492 5.55656C5.64755 5.40151 5.83227 5.27852 6.0356 5.1946C6.23893 5.11069 6.45687 5.06749 6.67698 5.06749C6.89708 5.06749 7.11503 5.11069 7.31835 5.1946C7.52168 5.27852 7.7064 5.40151 7.86195 5.55656L7.91219 5.60658C8.10956 5.79879 8.36024 5.92773 8.6319 5.97678C8.90356 6.02582 9.18375 5.99271 9.43633 5.88172H9.50332C9.75101 5.77603 9.96225 5.60054 10.111 5.37685C10.2598 5.15316 10.3397 4.89103 10.3408 4.62274V4.481C10.3408 4.03875 10.5172 3.6146 10.8313 3.30188C11.1454 2.98916 11.5714 2.81348 12.0156 2.81348C12.4598 2.81348 12.8858 2.98916 13.1999 3.30188C13.514 3.6146 13.6905 4.03875 13.6905 4.481V4.55604C13.6916 4.82433 13.7714 5.08646 13.9202 5.31015C14.069 5.53384 14.2803 5.70933 14.5279 5.81502C14.7805 5.92601 15.0607 5.95912 15.3324 5.91007C15.604 5.86103 15.8547 5.73209 16.0521 5.53988L16.1023 5.48985C16.2579 5.33481 16.4426 5.21182 16.6459 5.1279C16.8492 5.04398 17.0672 5.00079 17.2873 5.00079C17.5074 5.00079 17.7253 5.04398 17.9287 5.1279C18.132 5.21182 18.3167 5.33481 18.4723 5.48985C18.628 5.64472 18.7515 5.82863 18.8358 6.03107C18.9201 6.2335 18.9635 6.45049 18.9635 6.66963C18.9635 6.88877 18.9201 7.10576 18.8358 7.30819C18.7515 7.51063 18.628 7.69453 18.4723 7.8494L18.422 7.89943C18.229 8.09593 18.0995 8.3455 18.0502 8.61597C18.0009 8.88644 18.0342 9.1654 18.1457 9.41688V9.48358C18.2518 9.73018 18.4281 9.94049 18.6528 10.0886C18.8774 10.2368 19.1407 10.3163 19.4102 10.3173H19.5526C19.9968 10.3173 20.4228 10.493 20.7369 10.8057C21.051 11.1185 21.2274 11.5426 21.2274 11.9849C21.2274 12.4271 21.051 12.8513 20.7369 13.164C20.4228 13.4767 19.9968 13.6524 19.5526 13.6524H19.4772C19.2077 13.6535 18.9444 13.733 18.7198 13.8811C18.4951 14.0292 18.3188 14.2396 18.2127 14.4862Z" stroke="#F4F4F5" stroke-width="1.5" stroke-linecap="round" stroke-linejoin="round"/>
</g>
<defs>
<clipPath id="clip0_2237_2367">
<rect width="20" height="20" fill="white" transform="translate(2 2)"/>
</clipPath>
</defs>
</svg>
