<svg width="24" height="24" viewBox="0 0 24 24" fill="none" xmlns="http://www.w3.org/2000/svg">
<g clipPath="url(#clip0_2978_5444)">
<path d="M20.9835 16.7348H21.7335C21.7335 16.3206 21.3978 15.9848 20.9835 15.9848V16.7348ZM20.2335 20.1249C20.2335 20.5392 20.5693 20.8749 20.9835 20.8749C21.3978 20.8749 21.7335 20.5392 21.7335 20.1249H20.2335ZM9.68301 15.9848C9.26879 15.9848 8.93301 16.3206 8.93301 16.7348C8.93301 17.149 9.26879 17.4848 9.68301 17.4848V15.9848ZM17.0694 20.1249C17.0694 20.5392 17.4052 20.8749 17.8194 20.8749C18.2336 20.8749 18.5694 20.5392 18.5694 20.1249H17.0694ZM5.06103 4.65234H18.939V3.15234H5.06103V4.65234ZM20.5019 6.21533V8.52832H22.0019V6.21533H20.5019ZM18.939 10.0913H5.06103V11.5913H18.939V10.0913ZM3.49805 8.52832V6.21533H1.99805V8.52832H3.49805ZM5.06103 10.0913C4.19782 10.0913 3.49805 9.39153 3.49805 8.52832H1.99805C1.99805 10.22 3.36939 11.5913 5.06103 11.5913V10.0913ZM20.5019 8.52832C20.5019 9.39153 19.8022 10.0913 18.939 10.0913V11.5913C20.6306 11.5913 22.0019 10.22 22.0019 8.52832H20.5019ZM18.939 4.65234C19.8022 4.65234 20.5019 5.35212 20.5019 6.21533H22.0019C22.0019 4.52369 20.6306 3.15234 18.939 3.15234V4.65234ZM5.06103 3.15234C3.36939 3.15234 1.99805 4.52369 1.99805 6.21533H3.49805C3.49805 5.35212 4.19782 4.65234 5.06103 4.65234V3.15234ZM20.2335 16.7348V20.1249H21.7335V16.7348H20.2335ZM9.68301 17.4848H17.8194V15.9848H9.68301V17.4848ZM17.8194 17.4848H20.9835V15.9848H17.8194V17.4848ZM17.0694 16.7348V20.1249H18.5694V16.7348H17.0694ZM8.9449 16.6277C8.9449 18.1318 7.72558 19.3512 6.22148 19.3512V20.8512C8.55401 20.8512 10.4449 18.9603 10.4449 16.6277H8.9449ZM6.22148 19.3512C4.71737 19.3512 3.49805 18.1318 3.49805 16.6277H1.99805C1.99805 18.9603 3.88894 20.8512 6.22148 20.8512V19.3512ZM3.49805 16.6277C3.49805 15.1236 4.71737 13.9043 6.22148 13.9043V12.4043C3.88894 12.4043 1.99805 14.2952 1.99805 16.6277H3.49805ZM6.22148 13.9043C7.72558 13.9043 8.9449 15.1236 8.9449 16.6277H10.4449C10.4449 14.2952 8.55401 12.4043 6.22148 12.4043V13.9043Z" fill="#"/>
<path d="M9.13953 7.62791C9.13953 7.97469 8.85841 8.25581 8.51163 8.25581C8.16484 8.25581 7.88372 7.97469 7.88372 7.62791C7.88372 7.28112 8.16484 7 8.51163 7C8.85841 7 9.13953 7.28112 9.13953 7.62791Z" fill="#"/>
<path d="M11.0233 7.62791C11.0233 7.97469 10.7421 8.25581 10.3953 8.25581C10.0486 8.25581 9.76744 7.97469 9.76744 7.62791C9.76744 7.28112 10.0486 7 10.3953 7C10.7421 7 11.0233 7.28112 11.0233 7.62791Z" fill="#"/>
<path d="M7.25581 7.62791C7.25581 7.97469 6.97469 8.25581 6.62791 8.25581C6.28112 8.25581 6 7.97469 6 7.62791C6 7.28112 6.28112 7 6.62791 7C6.97469 7 7.25581 7.28112 7.25581 7.62791Z" fill="#"/>
</g>
<defs>
<clipPath id="clip0_2978_5444">
<rect width="20" height="20" fill="white" transform="translate(2 2)"/>
</clipPath>
</defs>
</svg>
