<svg width="24" height="24" viewBox="0 0 24 24" fill="none" xmlns="http://www.w3.org/2000/svg">
<g clip-path="url(#clip0_3020_17713)">
<path d="M10.3075 12.9004C10.6758 13.4213 11.1456 13.8523 11.6852 14.1642C12.2247 14.4761 12.8214 14.6616 13.4346 14.708C14.0479 14.7545 14.6634 14.6609 15.2395 14.4335C15.8156 14.2062 16.3387 13.8504 16.7733 13.3903L19.3459 10.6685C20.127 9.81288 20.5592 8.66696 20.5494 7.47751C20.5396 6.28807 20.0887 5.15027 19.2937 4.30917C18.4987 3.46807 17.4233 2.99098 16.2991 2.98064C15.1749 2.9703 14.0918 3.42755 13.2832 4.25391L11.8082 5.80538M13.7377 11.0858C13.3694 10.5649 12.8995 10.1339 12.36 9.82202C11.8204 9.51013 11.2238 9.32466 10.6105 9.27819C9.99725 9.23173 9.38172 9.32534 8.80566 9.5527C8.2296 9.78005 7.70649 10.1358 7.27182 10.5959L4.69921 13.3178C3.91817 14.1734 3.486 15.3193 3.49577 16.5087C3.50554 17.6982 3.95647 18.836 4.75144 19.6771C5.54641 20.5182 6.62182 20.9953 7.74603 21.0056C8.87025 21.0159 9.95333 20.5587 10.762 19.7323L12.2284 18.1809" stroke="#F4F4F5" stroke-width="1.5" stroke-linecap="round" stroke-linejoin="round"/>
</g>
<defs>
<clipPath id="clip0_3020_17713">
<rect width="20" height="20" fill="white" transform="translate(2 2)"/>
</clipPath>
</defs>
</svg>
