<svg width="24" height="24" viewBox="0 0 24 24" fill="none" xmlns="http://www.w3.org/2000/svg">
<g clip-path="url(#clip0_2978_5440)">
<path d="M6.91705 5.41043V8.16653M10.833 5.41043V8.16653M14.7489 5.41043V8.16653M6.08768 2.74609H15.6654C16.8011 2.74609 17.7218 3.66676 17.7218 4.80246V7.38407C17.7218 7.91986 17.9309 8.43449 18.3046 8.81842L19.3859 9.92927C19.7596 10.3132 19.9688 10.8278 19.9688 11.3636V12.4123C19.9688 12.6886 19.7503 12.9168 19.4786 12.9669C18.8997 13.0737 18.0151 13.3663 18.0229 14.1569C18.0229 15.0646 18.8759 15.3624 19.4523 15.4601C19.7343 15.5079 19.9688 15.7411 19.9688 16.0271V19.197C19.9688 20.3327 19.0481 21.2534 17.9124 21.2534H6.08768C4.95198 21.2534 4.03131 20.3327 4.03131 19.197V4.80246C4.03131 3.66676 4.95198 2.74609 6.08768 2.74609ZM8.58383 18.8597H13.8533C14.989 18.8597 15.9096 17.9391 15.9096 16.8034V15.0997C15.9096 13.964 14.989 13.0433 13.8533 13.0433H8.58383C7.44813 13.0433 6.52747 13.964 6.52747 15.0997V16.8034C6.52747 17.9391 7.44813 18.8597 8.58383 18.8597Z" stroke="#F4F4F5" stroke-width="1.5" stroke-linecap="round"/>
</g>
<defs>
<clipPath id="clip0_2978_5440">
<rect width="20" height="20" fill="white" transform="translate(2 2)"/>
</clipPath>
</defs>
</svg>
