<svg width="24" height="24" viewBox="0 0 24 24" fill="none" xmlns="http://www.w3.org/2000/svg">
<path d="M15.5858 8.40567V12.8978C15.5858 13.6127 15.8698 14.2982 16.3753 14.8037C16.8807 15.3092 17.5663 15.5931 18.2811 15.5931C18.996 15.5931 19.6815 15.3092 20.187 14.8037C20.6925 14.2982 20.9764 13.6127 20.9764 12.8978V11.9994C20.9763 9.97167 20.2902 8.0036 19.0298 6.41522C17.7693 4.82684 16.0086 3.71156 14.0339 3.25072C12.0592 2.78989 9.98674 3.01061 8.1534 3.877C6.32007 4.74338 4.83373 6.20447 3.93607 8.02269C3.03841 9.84091 2.78222 11.9093 3.20916 13.8916C3.6361 15.8739 4.72105 17.6535 6.28761 18.9409C7.85417 20.2284 9.81019 20.9481 11.8376 20.983C13.8651 21.0178 15.8447 20.3658 17.4546 19.133M15.5858 11.9994C15.5858 13.9842 13.9769 15.5931 11.9921 15.5931C10.0073 15.5931 8.39837 13.9842 8.39837 11.9994C8.39837 10.0146 10.0073 8.40567 11.9921 8.40567C13.9769 8.40567 15.5858 10.0146 15.5858 11.9994Z" stroke="#" strokeWidth="1.5" strokeLinecap="round" strokeLinejoin="round"/>
</svg>
