<svg width="24" height="24" viewBox="0 0 24 24" fill="none" xmlns="http://www.w3.org/2000/svg">
<g clip-path="url(#clip0_3020_17719)">
<path d="M2.99261 12C2.99261 16.9747 7.02535 21.0074 12 21.0074C13.4924 21.0074 14.7022 19.7976 14.7022 18.3052V17.8548C14.7022 17.4365 14.7022 17.2274 14.7253 17.0518C14.885 15.8392 15.8391 14.885 17.0517 14.7254C17.2273 14.7023 17.4365 14.7023 17.8548 14.7023H18.3051C19.7975 14.7023 21.0074 13.4924 21.0074 12C21.0074 7.02541 16.9746 2.99268 12 2.99268C7.02535 2.99268 2.99261 7.02541 2.99261 12Z" stroke="#" strokeWidth="1.5" strokeLinecap="round" strokeLinejoin="round"/>
<path d="M7.4963 12.9008C7.99376 12.9008 8.39704 12.4975 8.39704 12C8.39704 11.5026 7.99376 11.0993 7.4963 11.0993C6.99884 11.0993 6.59556 11.5026 6.59556 12C6.59556 12.4975 6.99884 12.9008 7.4963 12.9008Z" stroke="#" strokeWidth="1.5" strokeLinecap="round" strokeLinejoin="round"/>
<path d="M15.6029 9.29783C16.1004 9.29783 16.5037 8.89456 16.5037 8.3971C16.5037 7.89963 16.1004 7.49636 15.6029 7.49636C15.1055 7.49636 14.7022 7.89963 14.7022 8.3971C14.7022 8.89456 15.1055 9.29783 15.6029 9.29783Z" stroke="#" strokeWidth="1.5" strokeLinecap="round" strokeLinejoin="round"/>
<path d="M10.1985 8.3971C10.696 8.3971 11.0992 7.99382 11.0992 7.49636C11.0992 6.9989 10.696 6.59562 10.1985 6.59562C9.70105 6.59562 9.29777 6.9989 9.29777 7.49636C9.29777 7.99382 9.70105 8.3971 10.1985 8.3971Z" stroke="#" strokeWidth="1.5" strokeLinecap="round" strokeLinejoin="round"/>
</g>
<defs>
<clipPath id="clip0_3020_17719">
<rect width="20" height="20" fill="white" transform="translate(2 2)"/>
</clipPath>
</defs>
</svg>
