<svg width="24" height="24" viewBox="0 0 24 24" fill="none" xmlns="http://www.w3.org/2000/svg">
<path d="M9.16327 4.02646L11.5006 3.12975C11.6854 3.05885 11.7778 3.0234 11.8729 3.00935C11.9572 2.99688 12.0428 2.99688 12.1271 3.00935C12.2222 3.0234 12.3146 3.05885 12.4994 3.12974L17.2654 4.95822C17.9308 5.21351 18.2636 5.34115 18.5087 5.56222C18.7253 5.7575 18.8922 6.00382 18.9949 6.27988C19.1111 6.59237 19.1111 6.9559 19.1111 7.68296V12.032C19.1111 12.687 19.0086 13.3159 18.8283 13.9153M16.9972 17.1479C15.4988 18.9306 13.5892 20.1973 12.6219 20.7747C12.4242 20.8928 12.3253 20.9518 12.1865 20.9823C12.0787 21.0059 11.9214 21.0059 11.8137 20.9823C11.6748 20.9518 11.5764 20.8931 11.3796 20.7756C9.64797 19.7421 4.88889 16.4957 4.88889 12.032V6.37228C4.88889 5.94764 5.14636 5.56753 5.53501 5.41843M4 3.84755L20 20.2165" stroke="#" strokeWidth="1.5" strokeLinecap="round" strokeLinejoin="round"/>
</svg>
