<svg width="24" height="24" viewBox="0 0 24 24" fill="none" xmlns="http://www.w3.org/2000/svg">
<path d="M12.9286 7.8552L10.1436 10.6402L13.8569 12.4969L11.0719 15.2818M19.4269 12.0327C19.4269 16.5894 14.4567 19.9035 12.6482 20.9585C12.4427 21.0784 12.3399 21.1383 12.1949 21.1694C12.0824 21.1936 11.9182 21.1936 11.8056 21.1694C11.6606 21.1383 11.5578 21.0784 11.3523 20.9585C9.54386 19.9035 4.57361 16.5894 4.57361 12.0327V7.59304C4.57361 6.85083 4.57361 6.47972 4.695 6.16072C4.80223 5.87891 4.97649 5.62746 5.2027 5.4281C5.45877 5.20243 5.80625 5.07213 6.5012 4.81152L11.4787 2.94495C11.6717 2.87257 11.7682 2.83639 11.8675 2.82204C11.9555 2.80932 12.045 2.80932 12.133 2.82204C12.2323 2.83639 12.3288 2.87257 12.5218 2.94495L17.4993 4.81152C18.1943 5.07213 18.5418 5.20243 18.7978 5.4281C19.024 5.62746 19.1983 5.87891 19.3055 6.16072C19.4269 6.47972 19.4269 6.85083 19.4269 7.59304V12.0327Z" stroke="#F4F4F5" stroke-width="1.5" stroke-linecap="round" stroke-linejoin="round"/>
</svg>
