<svg width="24" height="24" viewBox="0 0 24 24" fill="none" xmlns="http://www.w3.org/2000/svg">
<g clip-path="url(#clip0_2237_2331)">
<path d="M19.9234 7.59806L12 12M12 12L4.07653 7.59806M12 12L12 20.8556M20.3895 15.7832V8.21674C20.3895 7.89733 20.3895 7.73763 20.3425 7.5952C20.3008 7.46919 20.2328 7.35353 20.1428 7.25594C20.0412 7.14563 19.9016 7.06807 19.6224 6.91296L12.7243 3.08071C12.4599 2.93384 12.3278 2.8604 12.1878 2.83161C12.0639 2.80613 11.9361 2.80613 11.8122 2.83161C11.6722 2.8604 11.54 2.93384 11.2757 3.08071L4.37762 6.91296C4.09841 7.06807 3.95881 7.14563 3.85716 7.25594C3.76722 7.35353 3.69917 7.46919 3.65753 7.5952C3.61047 7.73764 3.61047 7.89734 3.61047 8.21674V15.7832C3.61047 16.1027 3.61047 16.2624 3.65753 16.4048C3.69917 16.5308 3.76722 16.6465 3.85716 16.744C3.95881 16.8544 4.09842 16.9319 4.37762 17.087L11.2757 20.9193C11.54 21.0661 11.6722 21.1396 11.8122 21.1684C11.9361 21.1939 12.0639 21.1939 12.1878 21.1684C12.3278 21.1396 12.4599 21.0661 12.7243 20.9193L19.6224 17.087C19.9016 16.9319 20.0412 16.8544 20.1428 16.744C20.2328 16.6465 20.3008 16.5308 20.3425 16.4048C20.3895 16.2624 20.3895 16.1027 20.3895 15.7832Z" stroke="#" strokeWidth="1.5" strokeLinecap="round" strokeLinejoin="round"/>
</g>
<defs>
<clipPath id="clip0_2237_2331">
<rect width="20" height="20" fill="white" transform="translate(2 2)"/>
</clipPath>
</defs>
</svg>
