<svg width="24" height="25" viewBox="0 0 24 25" fill="none" xmlns="http://www.w3.org/2000/svg">
<g clip-path="url(#clip0_2237_2284)">
<path d="M8.32456 8.81186V6.24299C8.32456 5.21534 8.32456 4.70152 8.52455 4.30901C8.70047 3.96375 8.98118 3.68304 9.32644 3.50712C9.71895 3.30713 10.2328 3.30713 11.2604 3.30713H18.2331C19.2607 3.30713 19.7746 3.30713 20.1671 3.50712C20.5123 3.68304 20.793 3.96375 20.969 4.30901C21.1689 4.70152 21.1689 5.21534 21.1689 6.24299V13.2157C21.1689 14.2433 21.1689 14.7571 20.969 15.1496C20.793 15.4949 20.5123 15.7756 20.1671 15.9515C19.7746 16.1515 19.2607 16.1515 18.2331 16.1515H15.6642M5.75568 21.6562H12.7283C13.756 21.6562 14.2698 21.6563 14.6623 21.4563C15.0076 21.2803 15.2883 20.9996 15.4642 20.6544C15.6642 20.2619 15.6642 19.748 15.6642 18.7204V11.7477C15.6642 10.7201 15.6642 10.2063 15.4642 9.81374C15.2883 9.46848 15.0076 9.18778 14.6623 9.01186C14.2698 8.81187 13.756 8.81186 12.7283 8.81186H5.75568C4.72804 8.81186 4.21421 8.81187 3.8217 9.01186C3.47644 9.18778 3.19574 9.46848 3.01982 9.81374C2.81982 10.2063 2.81982 10.7201 2.81982 11.7477V18.7204C2.81982 19.748 2.81982 20.2619 3.01982 20.6544C3.19574 20.9996 3.47644 21.2803 3.8217 21.4563C4.21421 21.6563 4.72804 21.6562 5.75568 21.6562Z" stroke="#" strokeWidth="1.5" strokeLinecap="round" strokeLinejoin="round"/>
</g>
<defs>
<clipPath id="clip0_2237_2284">
<rect width="20" height="20" fill="white" transform="translate(2 2.5)"/>
</clipPath>
</defs>
</svg>
