<svg width="24" height="25" viewBox="0 0 24 25" fill="none" xmlns="http://www.w3.org/2000/svg">
<g clip-path="url(#clip0_3307_60384)">
<path d="M17.6817 13.2876L11.0485 6.76993M20.5245 20.7363H8.20569M10.989 19.8637L19.2034 11.7924C20.3292 10.6862 20.8921 10.1331 21.1031 9.49529C21.2886 8.93428 21.2886 8.32996 21.1031 7.76895C20.8921 7.13116 20.3292 6.57807 19.2034 5.47189L19.0028 5.2747C17.877 4.16852 17.3141 3.61543 16.665 3.4082C16.094 3.22591 15.479 3.22591 14.908 3.4082C14.2589 3.61543 13.696 4.16852 12.5702 5.27471L4.78874 12.9206C3.66294 14.0268 3.10004 14.5799 2.88914 15.2177C2.70362 15.7787 2.70362 16.383 2.88914 16.944C3.10004 17.5818 3.66294 18.1349 4.78874 19.2411L5.42233 19.8637C5.75011 20.1857 5.914 20.3468 6.10526 20.4619C6.27483 20.564 6.45969 20.6393 6.65307 20.6849C6.87119 20.7363 7.10296 20.7363 7.56651 20.7363H8.84486C9.30841 20.7363 9.54018 20.7363 9.7583 20.6849C9.95168 20.6393 10.1365 20.564 10.3061 20.4619C10.4974 20.3468 10.6613 20.1857 10.989 19.8637Z" stroke="#F4F4F5" stroke-width="1.5" stroke-linecap="round" stroke-linejoin="round"/>
</g>
<defs>
<clipPath id="clip0_3307_60384">
<rect width="20" height="20" fill="white" transform="translate(2 2.5)"/>
</clipPath>
</defs>
</svg>
