<svg width="24" height="25" viewBox="0 0 24 25" fill="none" xmlns="http://www.w3.org/2000/svg">
<g clip-path="url(#clip0_3429_43409)">
<path d="M21.2474 6.07704H17.959C16.2324 6.07704 15.3691 6.07704 14.7096 6.41306C14.1295 6.70863 13.6579 7.18025 13.3624 7.76033C13.0263 8.4198 13.0263 9.2831 13.0263 11.0097V12.2428M21.2474 6.07704L18.1645 2.99414M21.2474 6.07704L18.1645 9.15994M9.94344 2.99414H7.68264C5.95606 2.99414 5.09276 2.99414 4.43329 3.33016C3.85321 3.62572 3.38158 4.09735 3.08602 4.67743C2.75 5.3369 2.75 6.2002 2.75 7.92678V16.5589C2.75 18.2855 2.75 19.1488 3.08602 19.8083C3.38158 20.3883 3.85321 20.86 4.43329 21.1555C5.09276 21.4915 5.95605 21.4915 7.68264 21.4915H16.3148C18.0414 21.4915 18.9046 21.4915 19.5641 21.1555C20.1442 20.86 20.6158 20.3883 20.9114 19.8083C21.2474 19.1488 21.2474 18.2855 21.2474 16.5589V14.2981" stroke="#F4F4F5" stroke-width="1.5" stroke-linecap="round" stroke-linejoin="round"/>
</g>
<defs>
<clipPath id="clip0_3429_43409">
<rect width="20" height="20" fill="white" transform="translate(2 2.25)"/>
</clipPath>
</defs>
</svg>
