<svg width="24" height="25" viewBox="0 0 24 25" fill="none" xmlns="http://www.w3.org/2000/svg">
<g clip-path="url(#clip0_2751_32637)">
<path d="M6.55556 19.5L6.55556 14.8333M6.55556 14.8333C7.41467 14.8333 8.11111 14.1369 8.11111 13.2778C8.11111 12.4187 7.41467 11.7222 6.55556 11.7222C5.69645 11.7222 5 12.4187 5 13.2778C5 14.1369 5.69645 14.8333 6.55556 14.8333ZM6.55556 8.61111V5.5M12 19.5V14.8333M12 8.61111V5.5M12 8.61111C11.1409 8.61111 10.4444 9.30756 10.4444 10.1667C10.4444 11.0258 11.1409 11.7222 12 11.7222C12.8591 11.7222 13.5556 11.0258 13.5556 10.1667C13.5556 9.30756 12.8591 8.61111 12 8.61111ZM17.4444 19.5V16.3889M17.4444 16.3889C18.3036 16.3889 19 15.6924 19 14.8333C19 13.9742 18.3036 13.2778 17.4444 13.2778C16.5853 13.2778 15.8889 13.9742 15.8889 14.8333C15.8889 15.6924 16.5853 16.3889 17.4444 16.3889ZM17.4444 10.1667V5.5" stroke="white" stroke-width="1.5" stroke-linecap="round" stroke-linejoin="round"/>
</g>
<defs>
<clipPath id="clip0_2751_32637">
<rect width="16" height="16" fill="white" transform="translate(4 4.5)"/>
</clipPath>
</defs>
</svg>
