<svg width="24" height="24" viewBox="0 0 24 24" fill="none" xmlns="http://www.w3.org/2000/svg">
<path d="M7.34634 11.4931V14.0278M7.34634 11.4931V5.40972C7.34634 4.56979 8.04085 3.88889 8.89758 3.88889C9.75432 3.88889 10.4488 4.56979 10.4488 5.40972M7.34634 11.4931C7.34634 10.6531 6.65182 9.97222 5.79509 9.97222C4.93835 9.97222 4.24384 10.6531 4.24384 11.4931V13.5208C4.24384 17.7205 7.71643 21.125 12.0001 21.125C16.2837 21.125 19.7563 17.7205 19.7563 13.5208V8.45139C19.7563 7.61146 19.0618 6.93056 18.2051 6.93056C17.3484 6.93056 16.6538 7.61146 16.6538 8.45139M10.4488 5.40972V10.9861M10.4488 5.40972V4.39583C10.4488 3.5559 11.1434 2.875 12.0001 2.875C12.8568 2.875 13.5513 3.5559 13.5513 4.39583V5.40972M13.5513 5.40972V10.9861M13.5513 5.40972C13.5513 4.56979 14.2459 3.88889 15.1026 3.88889C15.9593 3.88889 16.6538 4.56979 16.6538 5.40972V8.45139M16.6538 8.45139V10.9861" stroke="#F4F4F5" stroke-width="1.5" stroke-linecap="round" stroke-linejoin="round"/>
</svg>
