<svg width="24" height="24" viewBox="0 0 24 24" fill="none" xmlns="http://www.w3.org/2000/svg">
<g clipPath="url(#clip0_2249_6229)">
<path d="M9.34407 9.26218C9.5586 8.65231 9.98206 8.13805 10.5394 7.81048C11.0968 7.4829 11.7521 7.36316 12.3893 7.47246C13.0265 7.58176 13.6045 7.91304 14.0208 8.40763C14.4372 8.90222 14.665 9.5282 14.6641 10.1747C14.6641 11.9998 11.9265 12.9123 11.9265 12.9123M11.9995 16.5624H12.0086M21.1248 11.9998C21.1248 17.0395 17.0392 21.125 11.9995 21.125C6.95978 21.125 2.87427 17.0395 2.87427 11.9998C2.87427 6.96002 6.95978 2.87451 11.9995 2.87451C17.0392 2.87451 21.1248 6.96002 21.1248 11.9998Z" stroke="#" strokeWidth="1.5" strokeLinecap="round" strokeLinejoin="round"/>
</g>
<defs>
<clipPath id="clip0_2249_6229">
<rect width="20" height="20" fill="white" transform="translate(2 2)"/>
</clipPath>
</defs>
</svg>
