<svg width="24" height="24" viewBox="0 0 24 24" fill="none" xmlns="http://www.w3.org/2000/svg">
<mask id="mask0_2249_6393" style="mask-type:alpha" maskUnits="userSpaceOnUse" x="0" y="0" width="24" height="24">
<rect width="24" height="24" fill="white"/>
</mask>
<g mask="url(#mask0_2249_6393)">
</g>
<g clip-path="url(#clip0_2249_6393)">
<path d="M8.91606 21.7343V14.1271C8.91606 13.5513 8.91606 13.2635 9.0281 13.0436C9.12666 12.8501 9.28393 12.6929 9.47736 12.5943C9.69726 12.4823 9.98513 12.4823 10.5609 12.4823H13.4393C14.015 12.4823 14.3029 12.4823 14.5228 12.5943C14.7162 12.6929 14.8735 12.8501 14.972 13.0436C15.0841 13.2635 15.0841 13.5513 15.0841 14.1271V21.7343M10.9903 2.98764L4.01802 8.41049C3.55195 8.77298 3.31892 8.95423 3.15104 9.18122C3.00232 9.38228 2.89154 9.60879 2.82413 9.84962C2.74803 10.1215 2.74803 10.4167 2.74803 11.0072V18.4447C2.74803 19.5962 2.74803 20.1719 2.97212 20.6117C3.16924 20.9986 3.48377 21.3131 3.87063 21.5102C4.31044 21.7343 4.88617 21.7343 6.03765 21.7343H17.9625C19.114 21.7343 19.6897 21.7343 20.1295 21.5102C20.5164 21.3131 20.8309 20.9986 21.028 20.6117C21.2521 20.1719 21.2521 19.5962 21.2521 18.4447V11.0072C21.2521 10.4167 21.2521 10.1215 21.176 9.84962C21.1086 9.60879 20.9978 9.38228 20.8491 9.18122C20.6812 8.95423 20.4482 8.77299 19.9821 8.41049L13.0099 2.98764C12.6487 2.70673 12.4681 2.56628 12.2687 2.51229C12.0928 2.46465 11.9073 2.46465 11.7314 2.51229C11.532 2.56628 11.3514 2.70673 10.9903 2.98764Z" stroke="white" strokeWidth="1.5" strokeLinecap="round" strokeLinejoin="round"/>
</g>
<defs>
<clipPath id="clip0_2249_6393">
<rect width="20" height="20" fill="white" transform="translate(2 2)"/>
</clipPath>
</defs>
</svg>
