<svg width="24" height="25" viewBox="0 0 24 25" fill="none" xmlns="http://www.w3.org/2000/svg">
<path d="M12.9166 7.91667L11.8941 5.87151C11.5998 5.2829 11.4526 4.98859 11.2331 4.77357C11.0389 4.58342 10.8049 4.43881 10.548 4.3502C10.2575 4.25 9.9285 4.25 9.27041 4.25H5.76665C4.73988 4.25 4.2265 4.25 3.83433 4.44982C3.48937 4.62559 3.2089 4.90605 3.03313 5.25102C2.83331 5.64319 2.83331 6.15657 2.83331 7.18333V7.91667M2.83331 7.91667H16.7666C18.3068 7.91667 19.0769 7.91667 19.6651 8.2164C20.1826 8.48005 20.6033 8.90075 20.8669 9.41819C21.1666 10.0065 21.1666 10.7765 21.1666 12.3167V16.35C21.1666 17.8901 21.1666 18.6602 20.8669 19.2485C20.6033 19.7659 20.1826 20.1866 19.6651 20.4503C19.0769 20.75 18.3068 20.75 16.7666 20.75H7.23331C5.69317 20.75 4.9231 20.75 4.33484 20.4503C3.81739 20.1866 3.3967 19.7659 3.13305 19.2485C2.83331 18.6602 2.83331 17.8901 2.83331 16.35V7.91667ZM9.24998 14.3333L12 17.0833M12 17.0833L14.75 14.3333M12 17.0833V11.5833" stroke="#F4F4F5" stroke-width="1.5" stroke-linecap="round" stroke-linejoin="round"/>
</svg>
