<svg width="24" height="25" viewBox="0 0 24 25" fill="none" xmlns="http://www.w3.org/2000/svg">
<path d="M12.9245 7.87728L11.8931 5.8146C11.5963 5.22095 11.4479 4.92411 11.2265 4.70725C11.0307 4.51548 10.7947 4.36963 10.5356 4.28026C10.2426 4.1792 9.91074 4.1792 9.24702 4.1792H5.71323C4.67767 4.1792 4.15989 4.1792 3.76436 4.38073C3.41644 4.55801 3.13357 4.84087 2.95629 5.18879C2.75476 5.58433 2.75476 6.10211 2.75476 7.13767V7.87728M2.75476 7.87728H16.8075C18.3608 7.87728 19.1375 7.87728 19.7308 8.17958C20.2527 8.44549 20.677 8.86979 20.9429 9.39167C21.2452 9.98497 21.2452 10.7616 21.2452 12.315V16.3829C21.2452 17.9362 21.2452 18.7129 20.9429 19.3062C20.677 19.8281 20.2527 20.2524 19.7308 20.5183C19.1375 20.8206 18.3608 20.8206 16.8075 20.8206H7.19246C5.63912 20.8206 4.86245 20.8206 4.26915 20.5183C3.74727 20.2524 3.32297 19.8281 3.05706 19.3062C2.75476 18.7129 2.75476 17.9362 2.75476 16.3829V7.87728ZM12 17.1225V11.5754M9.22641 14.3489H14.7735" stroke="#F4F4F5" stroke-width="1.5" stroke-linecap="round" stroke-linejoin="round"/>
</svg>
