<svg width="24" height="25" viewBox="0 0 24 25" fill="none" xmlns="http://www.w3.org/2000/svg">
<path d="M12.9236 7.63194L11.8933 5.57129C11.5968 4.97823 11.4485 4.68168 11.2273 4.46503C11.0317 4.27345 10.7959 4.12774 10.5371 4.03846C10.2444 3.9375 9.91286 3.9375 9.24978 3.9375H5.71947C4.68493 3.9375 4.16766 3.9375 3.77252 4.13884C3.42494 4.31593 3.14235 4.59852 2.96525 4.9461C2.76392 5.34124 2.76392 5.85851 2.76392 6.89306V7.63194M2.76392 7.63194H16.8028C18.3546 7.63194 19.1305 7.63194 19.7232 7.93395C20.2446 8.1996 20.6685 8.62348 20.9341 9.14485C21.2361 9.73756 21.2361 10.5135 21.2361 12.0653V16.1292C21.2361 17.681 21.2361 18.4569 20.9341 19.0496C20.6685 19.571 20.2446 19.9948 19.7232 20.2605C19.1305 20.5625 18.3546 20.5625 16.8028 20.5625H7.19725C5.64544 20.5625 4.86953 20.5625 4.27682 20.2605C3.75545 19.9948 3.33157 19.571 3.06592 19.0496C2.76392 18.4569 2.76392 17.681 2.76392 16.1292V7.63194Z" stroke="#" strokeWidth="1.5" strokeLinecap="round" strokeLinejoin="round"/>
</svg>
