<svg width="24" height="25" viewBox="0 0 24 25" fill="none" xmlns="http://www.w3.org/2000/svg">
<g clip-path="url(#clip0_2239_2376)">
<path d="M15.6775 11.6L3.07751 11.6M10.2775 5.3L8.47751 3.5M13.8775 21.5L3.07751 21.5M21.0775 16.1C21.0775 17.0941 20.2716 17.9 19.2775 17.9C18.2834 17.9 17.4775 17.0941 17.4775 16.1C17.4775 15.1059 19.2775 13.4 19.2775 13.4C19.2775 13.4 21.0775 15.1059 21.0775 16.1ZM9.37751 4.4L15.5593 10.5818C15.9157 10.9382 16.0939 11.1164 16.1607 11.3219C16.2194 11.5026 16.2194 11.6974 16.1607 11.8781C16.0939 12.0836 15.9157 12.2618 15.5593 12.6182L11.414 16.7635C10.7011 17.4764 10.3447 17.8328 9.93374 17.9663C9.57222 18.0838 9.1828 18.0838 8.82128 17.9663C8.41029 17.8328 8.05387 17.4764 7.34104 16.7635L4.21398 13.6365C3.50115 12.9236 3.14473 12.5672 3.01119 12.1562C2.89373 11.7947 2.89373 11.4053 3.01119 11.0438C3.14473 10.6328 3.50115 10.2764 4.21398 9.56353L9.37751 4.4Z" stroke="#" strokeWidth="1.5" strokeLinecap="round" strokeLinejoin="round"/>
</g>
<defs>
<clipPath id="clip0_2239_2376">
<rect width="20" height="20" fill="white" transform="translate(2 2.5)"/>
</clipPath>
</defs>
</svg>
