<svg width="24" height="24" viewBox="0 0 24 24" fill="none" xmlns="http://www.w3.org/2000/svg">
<mask id="mask0_2218_19566" style="mask-type:alpha" maskUnits="userSpaceOnUse" x="0" y="0" width="24" height="24">
<rect width="24" height="24" fill="#D9D9D9"/>
</mask>
<g mask="url(#mask0_2218_19566)">
<path d="M4 9C3.44772 9 3 8.55228 3 8V4C3 3.44772 3.44772 3 4 3C4.55228 3 5 3.44772 5 4V6.35C5.83333 5.31667 6.85417 4.5 8.0625 3.9C9.27083 3.3 10.5833 3 12 3C13.9667 3 15.7208 3.55833 17.2625 4.675C18.4106 5.5066 19.3022 6.51845 19.9373 7.71054C20.261 8.31818 19.7803 9 19.0918 9H18.9587C18.5718 9 18.225 8.77354 18.0303 8.43921C17.4805 7.49515 16.7371 6.71541 15.8 6.1C14.6833 5.36667 13.4167 5 12 5C11.05 5 10.1542 5.175 9.3125 5.525C8.47083 5.875 7.73333 6.36667 7.1 7H8C8.55229 7 9 7.44772 9 8C9 8.55228 8.55228 9 8 9H4ZM6 18H18L15.05 14.0667C14.65 13.5333 13.85 13.5333 13.45 14.0667L12.05 15.9333C11.65 16.4667 10.85 16.4667 10.45 15.9333L9.8 15.0667C9.4 14.5333 8.6 14.5333 8.2 15.0667L6 18ZM5 22C4.45 22 3.97917 21.8042 3.5875 21.4125C3.19583 21.0208 3 20.55 3 20V13C3 12.4477 3.44772 12 4 12C4.55228 12 5 12.4477 5 13V20H19V13C19 12.4477 19.4477 12 20 12C20.5523 12 21 12.4477 21 13V20C21 20.55 20.8042 21.0208 20.4125 21.4125C20.0208 21.8042 19.55 22 19 22H5Z" fill="white"/>
</g>
</svg>
