<svg width="24" height="24" viewBox="0 0 24 24" fill="none" xmlns="http://www.w3.org/2000/svg">
<g clip-path="url(#clip0_2237_2302)">
<path d="M20.736 3.77778L8.91651 15.5972M8.91651 8.40278L20.736 20.2222M6.34707 2.75C8.04994 2.75 9.4304 4.13046 9.4304 5.83333C9.4304 7.53621 8.04994 8.91667 6.34707 8.91667C4.64419 8.91667 3.26373 7.53621 3.26373 5.83333C3.26373 4.13046 4.64419 2.75 6.34707 2.75ZM6.34707 15.0833C8.04994 15.0833 9.4304 16.4638 9.4304 18.1667C9.4304 19.8695 8.04994 21.25 6.34707 21.25C4.64419 21.25 3.26373 19.8695 3.26373 18.1667C3.26373 16.4638 4.64419 15.0833 6.34707 15.0833Z" stroke="#" strokeWidth="1.5" strokeLinecap="round" strokeLinejoin="round"/>
</g>
<defs>
<clipPath id="clip0_2237_2302">
<rect width="20" height="20" fill="white" transform="translate(2 2)"/>
</clipPath>
</defs>
</svg>
