<svg width="24" height="25" viewBox="0 0 24 25" fill="none" xmlns="http://www.w3.org/2000/svg">
<g clipPath="url(#clip0_3430_13)">
<path d="M8.85049 13.8944L15.1587 17.5704M15.1495 7.42916L8.85049 11.1051M20.3125 6.03451C20.3125 7.56479 19.072 8.80534 17.5417 8.80534C16.0114 8.80534 14.7708 7.56479 14.7708 6.03451C14.7708 4.50422 16.0114 3.26367 17.5417 3.26367C19.072 3.26367 20.3125 4.50422 20.3125 6.03451ZM9.22917 12.4998C9.22917 14.0301 7.98862 15.2706 6.45833 15.2706C4.92804 15.2706 3.6875 14.0301 3.6875 12.4998C3.6875 10.9695 4.92804 9.72895 6.45833 9.72895C7.98862 9.72895 9.22917 10.9695 9.22917 12.4998ZM20.3125 18.9651C20.3125 20.4953 19.072 21.7359 17.5417 21.7359C16.0114 21.7359 14.7708 20.4953 14.7708 18.9651C14.7708 17.4348 16.0114 16.1942 17.5417 16.1942C19.072 16.1942 20.3125 17.4348 20.3125 18.9651Z" stroke="#" strokeWidth="1.5" strokeLinecap="round" strokeLinejoin="round"/>
</g>
<defs>
<clipPath id="clip0_3430_13">
<rect width="20" height="20" fill="white" transform="translate(2 2.5)"/>
</clipPath>
</defs>
</svg>
