<svg width="24" height="25" viewBox="0 0 24 25" fill="none" xmlns="http://www.w3.org/2000/svg">
<g clip-path="url(#clip0_3024_17991)">
<path d="M17.9037 5.7268C18.384 5.7268 18.7734 6.11618 18.7734 6.5965L18.7734 10.1048C18.7734 10.5851 18.384 10.9745 17.9037 10.9745L14.3953 10.9745C13.915 10.9745 13.5257 10.5851 13.5257 10.1048L13.5257 6.5965C13.5257 6.11618 13.915 5.7268 14.3954 5.7268L17.9037 5.7268Z" stroke="white" strokeWidth="1.5"/>
<path d="M17.9037 14.0258C18.384 14.0258 18.7734 14.4152 18.7734 14.8955L18.7734 18.4038C18.7734 18.8842 18.384 19.2735 17.9037 19.2735H14.3954C13.915 19.2735 13.5257 18.8842 13.5257 18.4038V14.8955C13.5257 14.4152 13.915 14.0258 14.3954 14.0258L17.9037 14.0258Z" stroke="white" strokeWidth="1.5"/>
<path d="M9.60465 5.7268C10.085 5.7268 10.4743 6.11618 10.4743 6.5965V10.1048C10.4743 10.5851 10.085 10.9745 9.60465 10.9745L6.09633 10.9745C5.61601 10.9745 5.22663 10.5851 5.22663 10.1048L5.22663 6.5965C5.22663 6.11618 5.61601 5.7268 6.09633 5.7268L9.60465 5.7268Z" stroke="white" strokeWidth="1.5"/>
<path d="M9.60465 14.0258C10.085 14.0258 10.4743 14.4152 10.4743 14.8955L10.4743 18.4038C10.4743 18.8842 10.085 19.2735 9.60465 19.2735H6.09632C5.61601 19.2735 5.22663 18.8842 5.22663 18.4038L5.22663 14.8955C5.22663 14.4152 5.61601 14.0258 6.09633 14.0258L9.60465 14.0258Z" stroke="white" strokeWidth="1.5"/>
</g>
<defs>
<clipPath id="clip0_3024_17991">
<rect width="20" height="20" fill="white" transform="translate(2 2.5)"/>
</clipPath>
</defs>
</svg>
