<svg width="24" height="25" viewBox="0 0 24 25" fill="none" xmlns="http://www.w3.org/2000/svg">
<g clipPath="url(#clip0_2249_6366)">
<path d="M12 8.50002V16.5M8.00002 12.5H16M7.80002 21.5001H16.2C17.8802 21.5001 18.7203 21.5001 19.362 21.1731C19.9265 20.8855 20.3855 20.4265 20.6731 19.862C21.0001 19.2203 21.0001 18.3802 21.0001 16.7V8.30002C21.0001 6.61985 21.0001 5.77977 20.6731 5.13803C20.3855 4.57355 19.9265 4.1146 19.362 3.82698C18.7203 3.5 17.8802 3.5 16.2 3.5H7.80002C6.11985 3.5 5.27977 3.5 4.63803 3.82698C4.07355 4.1146 3.6146 4.57355 3.32698 5.13803C3 5.77977 3 6.61985 3 8.30002V16.7C3 18.3802 3 19.2203 3.32698 19.862C3.6146 20.4265 4.07355 20.8855 4.63803 21.1731C5.27977 21.5001 6.11985 21.5001 7.80002 21.5001Z" stroke="#" strokeWidth="1.5" strokeLinecap="round" strokeLinejoin="round"/>
</g>
<defs>
<clipPath id="clip0_2249_6366">
<rect width="20" height="20" fill="white" transform="translate(2 2.5)"/>
</clipPath>
</defs>
</svg>
