<svg width="24" height="25" viewBox="0 0 24 25" fill="none" xmlns="http://www.w3.org/2000/svg">
<g clip-path="url(#clip0_2249_6207)">
<path d="M7.91667 7.39583H16.0833M12 7.39583V17.6042M7.7125 21.6875H16.2875C18.0027 21.6875 18.8602 21.6875 19.5153 21.3537C20.0916 21.0601 20.5601 20.5916 20.8537 20.0153C21.1875 19.3602 21.1875 18.5027 21.1875 16.7875V8.2125C21.1875 6.49734 21.1875 5.63976 20.8537 4.98465C20.5601 4.40841 20.0916 3.9399 19.5153 3.64629C18.8602 3.3125 18.0027 3.3125 16.2875 3.3125H7.7125C5.99734 3.3125 5.13976 3.3125 4.48465 3.64629C3.90841 3.9399 3.4399 4.40841 3.14629 4.98465C2.8125 5.63976 2.8125 6.49734 2.8125 8.2125V16.7875C2.8125 18.5027 2.8125 19.3602 3.14629 20.0153C3.4399 20.5916 3.90841 21.0601 4.48465 21.3537C5.13976 21.6875 5.99734 21.6875 7.7125 21.6875Z" stroke="#" strokeWidth="1.5" strokeLinecap="round" strokeLinejoin="round"/>
</g>
<defs>
<clipPath id="clip0_2249_6207">
<rect width="20" height="20" fill="white" transform="translate(2 2.5)"/>
</clipPath>
</defs>
</svg>
