<svg width="24" height="25" viewBox="0 0 24 25" fill="none" xmlns="http://www.w3.org/2000/svg">
<g clip-path="url(#clip0_2237_2266)">
<path d="M20.1108 21.625C20.1108 20.2101 20.1108 19.5026 19.9361 18.9269C19.543 17.6307 18.5286 16.6164 17.2325 16.2232C16.6568 16.0486 15.9493 16.0486 14.5344 16.0486H9.46494C8.04999 16.0486 7.34252 16.0486 6.76684 16.2232C5.47068 16.6164 4.45637 17.6307 4.06318 18.9269C3.88855 19.5026 3.88855 20.2101 3.88855 21.625M16.5622 7.9375C16.5622 10.4573 14.5195 12.5 11.9997 12.5C9.47986 12.5 7.43716 10.4573 7.43716 7.9375C7.43716 5.4177 9.47986 3.375 11.9997 3.375C14.5195 3.375 16.5622 5.4177 16.5622 7.9375Z" stroke="#" strokeWidth="1.5" strokeLinecap="round" strokeLinejoin="round"/>
</g>
<defs>
<clipPath id="clip0_2237_2266">
<rect width="20" height="20" fill="white" transform="translate(2 2.5)"/>
</clipPath>
</defs>
</svg>
